<mxfile host="app.diagrams.net" modified="2022-03-14T08:24:46.130Z" agent="5.0 (Windows NT 10.0; Win64; x64) AppleWebKit/537.36 (KHTML, like Gecko) Chrome/99.0.4844.51 Safari/537.36 Edg/99.0.1150.39" etag="RvmLx1oIyiaOykL1sROW" version="17.1.1" type="github">
  <diagram id="OdimADcS7VeNyrV7x7Kn" name="Page-1">
    <mxGraphModel dx="782" dy="1683" grid="1" gridSize="10" guides="1" tooltips="1" connect="1" arrows="1" fold="1" page="1" pageScale="1" pageWidth="827" pageHeight="1169" math="0" shadow="0">
      <root>
        <mxCell id="0" />
        <mxCell id="1" parent="0" />
        <mxCell id="LDjSrmN3v6cIMVcZkSbh-3" style="edgeStyle=orthogonalEdgeStyle;rounded=0;orthogonalLoop=1;jettySize=auto;html=1;entryX=0;entryY=0.5;entryDx=0;entryDy=0;" edge="1" parent="1" source="LDjSrmN3v6cIMVcZkSbh-1" target="LDjSrmN3v6cIMVcZkSbh-4">
          <mxGeometry relative="1" as="geometry">
            <mxPoint x="280" y="230" as="targetPoint" />
          </mxGeometry>
        </mxCell>
        <mxCell id="LDjSrmN3v6cIMVcZkSbh-1" value="前端数据埋点" style="rounded=0;whiteSpace=wrap;html=1;" vertex="1" parent="1">
          <mxGeometry x="80" y="170" width="120" height="60" as="geometry" />
        </mxCell>
        <mxCell id="LDjSrmN3v6cIMVcZkSbh-5" style="edgeStyle=orthogonalEdgeStyle;rounded=0;orthogonalLoop=1;jettySize=auto;html=1;entryX=0;entryY=0.5;entryDx=0;entryDy=0;" edge="1" parent="1" source="LDjSrmN3v6cIMVcZkSbh-2" target="LDjSrmN3v6cIMVcZkSbh-4">
          <mxGeometry relative="1" as="geometry" />
        </mxCell>
        <mxCell id="LDjSrmN3v6cIMVcZkSbh-2" value="java端业务处理" style="rounded=0;whiteSpace=wrap;html=1;" vertex="1" parent="1">
          <mxGeometry x="80" y="260" width="120" height="60" as="geometry" />
        </mxCell>
        <mxCell id="LDjSrmN3v6cIMVcZkSbh-8" style="edgeStyle=orthogonalEdgeStyle;rounded=0;orthogonalLoop=1;jettySize=auto;html=1;" edge="1" parent="1" source="LDjSrmN3v6cIMVcZkSbh-4" target="LDjSrmN3v6cIMVcZkSbh-6">
          <mxGeometry relative="1" as="geometry" />
        </mxCell>
        <mxCell id="LDjSrmN3v6cIMVcZkSbh-4" value="nginx日志服务器" style="rounded=0;whiteSpace=wrap;html=1;" vertex="1" parent="1">
          <mxGeometry x="280" y="220" width="120" height="60" as="geometry" />
        </mxCell>
        <mxCell id="LDjSrmN3v6cIMVcZkSbh-11" style="edgeStyle=orthogonalEdgeStyle;rounded=0;orthogonalLoop=1;jettySize=auto;html=1;exitX=0.5;exitY=1;exitDx=0;exitDy=0;startArrow=none;" edge="1" parent="1" source="LDjSrmN3v6cIMVcZkSbh-13">
          <mxGeometry relative="1" as="geometry">
            <mxPoint x="610" y="360" as="targetPoint" />
          </mxGeometry>
        </mxCell>
        <mxCell id="LDjSrmN3v6cIMVcZkSbh-6" value="HDFS&lt;br&gt;&lt;br&gt;ODS" style="rounded=0;whiteSpace=wrap;html=1;" vertex="1" parent="1">
          <mxGeometry x="550" y="220" width="120" height="60" as="geometry" />
        </mxCell>
        <mxCell id="LDjSrmN3v6cIMVcZkSbh-7" value="用户情况分析&lt;br&gt;&lt;br&gt;&lt;br&gt;一条日志：229字节&lt;br&gt;&lt;br&gt;1000w pageview * 229字节 放在hdfs中" style="rounded=0;whiteSpace=wrap;html=1;" vertex="1" parent="1">
          <mxGeometry x="270" y="-40" width="200" height="160" as="geometry" />
        </mxCell>
        <mxCell id="LDjSrmN3v6cIMVcZkSbh-9" value="主动：flume" style="rounded=0;whiteSpace=wrap;html=1;" vertex="1" parent="1">
          <mxGeometry x="414" y="200" width="116" height="40" as="geometry" />
        </mxCell>
        <mxCell id="LDjSrmN3v6cIMVcZkSbh-10" value="被动：kafka" style="rounded=0;whiteSpace=wrap;html=1;" vertex="1" parent="1">
          <mxGeometry x="414" y="260" width="116" height="40" as="geometry" />
        </mxCell>
        <mxCell id="LDjSrmN3v6cIMVcZkSbh-15" style="edgeStyle=orthogonalEdgeStyle;rounded=0;orthogonalLoop=1;jettySize=auto;html=1;" edge="1" parent="1" source="LDjSrmN3v6cIMVcZkSbh-12">
          <mxGeometry relative="1" as="geometry">
            <mxPoint x="610" y="470" as="targetPoint" />
          </mxGeometry>
        </mxCell>
        <mxCell id="LDjSrmN3v6cIMVcZkSbh-12" value="HBase-HDFS&lt;br&gt;DW层" style="rounded=0;whiteSpace=wrap;html=1;" vertex="1" parent="1">
          <mxGeometry x="550" y="360" width="120" height="60" as="geometry" />
        </mxCell>
        <mxCell id="LDjSrmN3v6cIMVcZkSbh-13" value="ETL 清洗" style="text;html=1;strokeColor=none;fillColor=none;align=center;verticalAlign=middle;whiteSpace=wrap;rounded=0;" vertex="1" parent="1">
          <mxGeometry x="580" y="295" width="60" height="30" as="geometry" />
        </mxCell>
        <mxCell id="LDjSrmN3v6cIMVcZkSbh-14" value="" style="edgeStyle=orthogonalEdgeStyle;rounded=0;orthogonalLoop=1;jettySize=auto;html=1;exitX=0.5;exitY=1;exitDx=0;exitDy=0;endArrow=none;" edge="1" parent="1" source="LDjSrmN3v6cIMVcZkSbh-6" target="LDjSrmN3v6cIMVcZkSbh-13">
          <mxGeometry relative="1" as="geometry">
            <mxPoint x="610" y="360" as="targetPoint" />
            <mxPoint x="610" y="280" as="sourcePoint" />
          </mxGeometry>
        </mxCell>
        <mxCell id="LDjSrmN3v6cIMVcZkSbh-18" value="" style="edgeStyle=orthogonalEdgeStyle;rounded=0;orthogonalLoop=1;jettySize=auto;html=1;entryX=1;entryY=0.5;entryDx=0;entryDy=0;" edge="1" parent="1" source="LDjSrmN3v6cIMVcZkSbh-16" target="LDjSrmN3v6cIMVcZkSbh-19">
          <mxGeometry relative="1" as="geometry" />
        </mxCell>
        <mxCell id="LDjSrmN3v6cIMVcZkSbh-22" style="edgeStyle=orthogonalEdgeStyle;rounded=0;orthogonalLoop=1;jettySize=auto;html=1;entryX=1;entryY=0.5;entryDx=0;entryDy=0;" edge="1" parent="1" source="LDjSrmN3v6cIMVcZkSbh-16" target="LDjSrmN3v6cIMVcZkSbh-21">
          <mxGeometry relative="1" as="geometry" />
        </mxCell>
        <mxCell id="LDjSrmN3v6cIMVcZkSbh-16" value="数据聚合计算&lt;br&gt;MapReduce" style="rounded=0;whiteSpace=wrap;html=1;" vertex="1" parent="1">
          <mxGeometry x="550" y="470" width="120" height="60" as="geometry" />
        </mxCell>
        <mxCell id="LDjSrmN3v6cIMVcZkSbh-17" value="MySQL&lt;br&gt;ADS" style="whiteSpace=wrap;html=1;rounded=0;" vertex="1" parent="1">
          <mxGeometry x="100" y="470" width="120" height="60" as="geometry" />
        </mxCell>
        <mxCell id="LDjSrmN3v6cIMVcZkSbh-20" style="edgeStyle=orthogonalEdgeStyle;rounded=0;orthogonalLoop=1;jettySize=auto;html=1;entryX=1;entryY=0.5;entryDx=0;entryDy=0;" edge="1" parent="1" source="LDjSrmN3v6cIMVcZkSbh-19" target="LDjSrmN3v6cIMVcZkSbh-17">
          <mxGeometry relative="1" as="geometry" />
        </mxCell>
        <mxCell id="LDjSrmN3v6cIMVcZkSbh-19" value="MapReduce" style="rounded=0;whiteSpace=wrap;html=1;" vertex="1" parent="1">
          <mxGeometry x="330" y="430" width="120" height="60" as="geometry" />
        </mxCell>
        <mxCell id="LDjSrmN3v6cIMVcZkSbh-23" style="edgeStyle=orthogonalEdgeStyle;rounded=0;orthogonalLoop=1;jettySize=auto;html=1;entryX=1;entryY=0.5;entryDx=0;entryDy=0;" edge="1" parent="1" source="LDjSrmN3v6cIMVcZkSbh-21" target="LDjSrmN3v6cIMVcZkSbh-17">
          <mxGeometry relative="1" as="geometry" />
        </mxCell>
        <mxCell id="LDjSrmN3v6cIMVcZkSbh-21" value="Hive" style="rounded=0;whiteSpace=wrap;html=1;" vertex="1" parent="1">
          <mxGeometry x="330" y="510" width="120" height="60" as="geometry" />
        </mxCell>
      </root>
    </mxGraphModel>
  </diagram>
</mxfile>
